<svg xmlns="http://www.w3.org/2000/svg" width="128" height="128" fill="none"><g clip-path="url(#a)" filter="url(#b)"><path fill="#000" d="M16.05 32.148c4.466-3.752 13.4-6.215 22.791-6.215s18.38 2.44 22.685 6.215c.518.332 1.159.493 1.805.454a2.9 2.9 0 0 0 1.712-.668c.458-.392.735-.912.781-1.465a2.08 2.08 0 0 0-.531-1.544C58.835 23.31 47.37 21.33 38.814 21.33s-20.02 2.002-26.532 7.595a2.08 2.08 0 0 0-.532 1.544c.046.553.324 1.073.782 1.465.458.391 1.066.629 1.712.668a3.02 3.02 0 0 0 1.805-.454"/><path fill="#000" fill-rule="evenodd" d="M38.841 30.536c14.973 0 26.392 6.039 34 17.936l14.747-8.414 36.839 21.016-12.336 7.317v12.436l-7.577 4.495v11.816h4.097v9.532h-4.552v-5.466h-3.641v5.466h-4.551v-9.532h4.096v-9.116l-12.358 7.33L65.027 81.96c-.65.35-1.34.648-2.057.892a14.6 14.6 0 0 1-4.943.76 21.4 21.4 0 0 1-4.09-.413C46.214 81.634 37.953 75.764 35.8 70.4a2 2 0 0 1 .14-1.762c.158-.271.376-.513.643-.712.267-.2.577-.352.913-.449a3.12 3.12 0 0 1 2.06.12c.317.135.6.321.833.55.233.228.411.493.524.78 1.4 3.568 7.804 8.47 14.262 9.782a9.4 9.4 0 0 0 4.355.265 8.7 8.7 0 0 0 3.44-1.39V70.35q-.695.624-1.525 1.157c-5.466 3.552-11.785-.357-16.54-3.299l-.063-.038c-4.763-2.947-8.127-4.81-10.414-3.499-1.134.717-2.017 1.686-2.553 2.802A5.73 5.73 0 0 0 31.387 71c.538 4.603 5.032 10.887 16.146 14.96.572.21 1.042.58 1.33 1.053a2 2 0 0 1 .25 1.535c-.127.52-.461.988-.946 1.322a3 3 0 0 1-1.71.51 3 3 0 0 1-.942-.184C32.22 85.247 26.84 77.329 26.194 71.437c-.31-2.016.027-4.067.975-5.932s2.471-3.474 4.407-4.656c5.443-3.103 11.4.496 16.188 3.39l.334.201c4.844 2.923 8.073 4.764 10.225 3.383a6.7 6.7 0 0 0 1.515-1.357l-6.656-3.95-.04-.024c-.434-.252-.934-.847-1.13-1.113l-.604-.677h-.005l.005-.003c-4.34-4.723-9.573-6.708-15.177-5.788-3.216.595-6.197 1.894-8.65 3.77s-4.294 4.265-5.343 6.933v.023c-2.287 7.595 1.157 16.18 10.145 25.617.446.472.657 1.075.586 1.678-.07.603-.416 1.159-.963 1.545a2.8 2.8 0 0 1-1.695.53 3.1 3.1 0 0 1-1.192-.213 2.7 2.7 0 0 1-.96-.64C18.013 83.568 14.164 73.602 16.855 64.533c1.317-3.54 3.71-6.715 6.936-9.203s7.165-4.196 11.416-4.952c4.488-.71 13.075-.629 20.678 7.767l3.486-1.989c-3.405-6.025-11.109-11.809-20.558-11.809-25.375 0-27.34 23.017-27.34 29.922 0 .61-.283 1.196-.788 1.628-.504.431-1.189.674-1.902.674-.714 0-1.399-.243-1.903-.674-.505-.432-.788-1.017-.788-1.628 0-16.687 8.61-34.525 32.721-34.525 5.908.194 11.608 1.917 16.345 4.942 3.69 2.356 6.661 5.415 8.691 8.915l4.504-2.569C61.644 40.348 51.925 35.14 38.787 35.14c-13.643 0-23.545 5.639-30.111 17.124a2.4 2.4 0 0 1-.645.718c-.268.2-.58.353-.918.45a3.1 3.1 0 0 1-2.07-.132c-.634-.276-1.114-.755-1.336-1.333a2 2 0 0 1 .152-1.751c7.481-13.05 19.294-19.68 34.982-19.68m48.764 59.936L67.653 78.636a2 2 0 0 0-.13-.366v-7.246l20.065 11.903 12.375-7.34v7.554zM66.246 65.386l21.342 12.66 10.542-6.254-11.804-7.028 2.524-3.384 13.391 7.974 13.845-8.213-28.498-16.258-21.973 12.535v.002l-4.67 2.663-1.855 1.058 2 1.186v.004l5.155 3.057zm41.294 13.26-3.026 1.795v-7.555l3.026-1.795z" clip-rule="evenodd"/><mask id="c" width="122" height="86" x="3" y="21" maskUnits="userSpaceOnUse" style="mask-type:luminance"><path fill="#fff" d="M16.05 32.148c4.466-3.752 13.4-6.215 22.791-6.215s18.38 2.44 22.685 6.215c.518.332 1.159.493 1.805.454a2.9 2.9 0 0 0 1.712-.668c.458-.392.735-.912.781-1.465a2.08 2.08 0 0 0-.531-1.544C58.835 23.31 47.37 21.33 38.814 21.33s-20.02 2.002-26.532 7.595a2.08 2.08 0 0 0-.532 1.544c.046.553.324 1.073.782 1.465.458.391 1.066.629 1.712.668a3.02 3.02 0 0 0 1.805-.454"/><path fill="#fff" fill-rule="evenodd" d="M38.841 30.536c14.973 0 26.392 6.039 34 17.936l14.747-8.414 36.839 21.016-12.336 7.317v12.436l-7.577 4.495v11.816h4.097v9.532h-4.552v-5.466h-3.641v5.466h-4.551v-9.532h4.096v-9.116l-12.358 7.33L65.027 81.96c-.65.35-1.34.648-2.057.892a14.6 14.6 0 0 1-4.943.76 21.4 21.4 0 0 1-4.09-.413C46.214 81.634 37.953 75.764 35.8 70.4a2 2 0 0 1 .14-1.762c.158-.271.376-.513.643-.712.267-.2.577-.352.913-.449a3.12 3.12 0 0 1 2.06.12c.317.135.6.321.833.55.233.228.411.493.524.78 1.4 3.568 7.804 8.47 14.262 9.782a9.4 9.4 0 0 0 4.355.265 8.7 8.7 0 0 0 3.44-1.39V70.35q-.695.624-1.525 1.157c-5.466 3.552-11.785-.357-16.54-3.299l-.063-.038c-4.763-2.947-8.127-4.81-10.414-3.499-1.134.717-2.017 1.686-2.553 2.802A5.73 5.73 0 0 0 31.387 71c.538 4.603 5.032 10.887 16.146 14.96.572.21 1.042.58 1.33 1.053a2 2 0 0 1 .25 1.535c-.127.52-.461.988-.946 1.322a3 3 0 0 1-1.71.51 3 3 0 0 1-.942-.184C32.22 85.247 26.84 77.329 26.194 71.437c-.31-2.016.027-4.067.975-5.932s2.471-3.474 4.407-4.656c5.443-3.103 11.4.496 16.188 3.39l.334.201c4.844 2.923 8.073 4.764 10.225 3.383a6.7 6.7 0 0 0 1.515-1.357l-6.656-3.95-.04-.024c-.434-.252-.934-.847-1.13-1.113l-.604-.677h-.005l.005-.003c-4.34-4.723-9.573-6.708-15.177-5.788-3.216.595-6.197 1.894-8.65 3.77s-4.294 4.265-5.343 6.933v.023c-2.287 7.595 1.157 16.18 10.145 25.617.446.472.657 1.075.586 1.678-.07.603-.416 1.159-.963 1.545a2.8 2.8 0 0 1-1.695.53 3.1 3.1 0 0 1-1.192-.213 2.7 2.7 0 0 1-.96-.64C18.013 83.568 14.164 73.602 16.855 64.533c1.317-3.54 3.71-6.715 6.936-9.203s7.165-4.196 11.416-4.952c4.488-.71 13.075-.629 20.678 7.767l3.486-1.989c-3.405-6.025-11.109-11.809-20.558-11.809-25.375 0-27.34 23.017-27.34 29.922 0 .61-.283 1.196-.788 1.628-.504.431-1.189.674-1.902.674-.714 0-1.399-.243-1.903-.674-.505-.432-.788-1.017-.788-1.628 0-16.687 8.61-34.525 32.721-34.525 5.908.194 11.608 1.917 16.345 4.942 3.69 2.356 6.661 5.415 8.691 8.915l4.504-2.569C61.644 40.348 51.925 35.14 38.787 35.14c-13.643 0-23.545 5.639-30.111 17.124a2.4 2.4 0 0 1-.645.718c-.268.2-.58.353-.918.45a3.1 3.1 0 0 1-2.07-.132c-.634-.276-1.114-.755-1.336-1.333a2 2 0 0 1 .152-1.751c7.481-13.05 19.294-19.68 34.982-19.68m48.764 59.936L67.653 78.636a2 2 0 0 0-.13-.366v-7.246l20.065 11.903 12.375-7.34v7.554zM66.246 65.386l21.342 12.66 10.542-6.254-11.804-7.028 2.524-3.384 13.391 7.974 13.845-8.213-28.498-16.258-21.973 12.535v.002l-4.67 2.663-1.855 1.058 2 1.186v.004l5.155 3.057zm41.294 13.26-3.026 1.795v-7.555l3.026-1.795z" clip-rule="evenodd"/></mask><g mask="url(#c)"><path fill="#000" d="m16.05 32.148.539.841.054-.034.05-.042zm45.476 0-.66.751.057.05.063.04zm3.767-3.223.752-.66-.045-.05-.05-.044zm-53.011 0-.652-.759-.053.047-.047.053zM72.84 48.472l-.842.538.512.801.826-.47zm14.748-8.414.496-.868-.496-.283-.495.283zm36.839 21.016.51.86 1.478-.876-1.493-.852zm-12.336 7.317-.51-.86-.49.291v.57zm0 12.436.511.86.489-.29v-.57zm-7.577 4.495-.51-.86-.49.29v.57zm0 11.816h-1v1h1zm4.097 0h1v-1h-1zm0 9.532v1h1v-1zm-4.552 0h-1v1h1zm0-5.466h1v-1h-1zm-3.641 0v-1h-1v1zm0 5.466v1h1v-1zm-4.551 0h-1v1h1zm0-9.532v-1h-1v1zm4.096 0v1h1v-1zm0-9.116h1v-1.756l-1.51.896zm-12.358 7.33-.51.86.51.303.51-.303zM65.027 81.96l.51-.86-.485-.289-.498.267zm-7 1.653.019-1h-.014zm-4.09-.414-.198.98h.002zM35.8 70.4l-.93.367.002.006zm5.113-1.473.931-.365v-.001zm14.262 9.782.294-.956-.047-.014-.048-.01zm7.796-1.124.568.823.432-.298v-.525zm0-7.237h1V68.11l-1.667 1.494zm-1.526 1.157-.54-.842-.005.004zM34.428 64.67l-.497-.867-.02.01-.017.012zM31.388 71l.992-.116-.003-.032-.006-.032zm16.145 14.96-.344.94h.002zm-1.077 4.42-.037 1h.031zm-.941-.184-.35.937.005.002zM26.194 71.437l.994-.109-.002-.022-.004-.021zm5.382-10.588-.496-.868-.013.007-.012.008zm26.747 6.974.54.842.006-.004.007-.004zm1.515-1.357.777.63.729-.9-.995-.59zm-6.656-3.95-.58.816.034.024.035.021zm-1.17-1.137.806-.593-.028-.038-.031-.034zm-.604-.677.747-.666-.318-.356-.477.023zm-.005 0-.496-.869.544 1.868zm.005-.003.496.868 1.09-.621-.85-.924zM36.231 54.91l-.162-.987-.01.002-.01.002zM22.238 65.614l-.93-.366-.07.176v.19zm0 .023.958.288.042-.14v-.148zm10.145 25.617.726-.687-.002-.002zm-.377 3.223-.577-.817-.01.007-.009.007zm-1.695.53.012-1h-.032zm-2.153-.852.726-.688-.004-.004zM16.856 64.532l-.937-.349-.012.032-.01.033zm18.352-14.155-.156-.988-.01.002-.009.001zm20.678 7.767-.742.671.54.596.697-.398zm3.486-1.989.496.869.865-.494-.49-.867zM38.814 39.743l.033-1h-.033zM63.85 53.6l-.865.502.498.86.863-.493zm4.504-2.569.495.869.906-.517-.554-.884zM8.676 52.264l.867.499.001-.003zm-4.817-2.048.863.506.005-.01zm63.794 28.42-.969.246.102.403.357.212zm19.952 11.836-.51.86.51.302.51-.302zM67.522 78.27h-1v.222l.094.201zm0-7.246.51-.86-1.51-.896v1.756zm20.066 11.903-.51.86.51.302.51-.302zm12.375-7.34h1V73.83l-1.51.896zm0 7.554.51.86.49-.29v-.57zM66.246 65.386l.51-.86-1.039-.617-.411 1.137zm21.342 12.66-.51.86.51.302.51-.302zm10.542-6.254.51.86 1.447-.858-1.446-.86zm-11.804-7.028-.801-.598-.664.89.953.567zm2.524-3.384.512-.859-.774-.46-.54.721zm13.391 7.974-.512.859.511.304.511-.303zm13.845-8.213.511.86 1.478-.877-1.493-.852zM87.588 44.883l.496-.869-.496-.283-.495.283zM65.615 57.418l-.496-.868-.716.408.265.782zm0 .002.496.87.717-.41-.266-.781zm-6.525 3.72-.496-.868-1.493.852L58.58 62zm2 1.187.992-.123-.06-.487-.423-.25zm0 .004-.993.122.06.487.423.25zm5.155 3.057-.51.86 1.04.616.41-1.136zm38.269 15.053h-1v1.756l1.511-.896zm3.026-1.795.51.86.49-.29v-.57zm-3.026-5.76-.51-.86-.49.29v.57zm3.026-1.795h1v-1.756l-1.51.896zM38.841 24.933c-4.779 0-9.45.626-13.506 1.736-4.043 1.105-7.544 2.71-9.93 4.713l1.287 1.531c2.082-1.749 5.282-3.251 9.17-4.315 3.875-1.06 8.367-1.665 12.98-1.665zm23.344 6.463c-2.312-2.027-5.797-3.634-9.83-4.736-4.052-1.107-8.736-1.727-13.514-1.727v2c4.614 0 9.12.6 12.986 1.656 3.884 1.062 7.046 2.562 9.04 4.31zm1.085.208a2.02 2.02 0 0 1-1.205-.298l-1.08 1.683c.707.453 1.56.663 2.407.611zm1.123-.43c-.28.24-.677.403-1.123.43l.122 1.996a3.9 3.9 0 0 0 2.3-.906zm.435-.787c-.022.265-.158.55-.435.787l1.3 1.52c.639-.547 1.058-1.303 1.128-2.142zm-.287-.803c.222.254.309.539.287.803l1.993.165a3.07 3.07 0 0 0-.776-2.286zM38.814 22.33c4.21 0 9.13.487 13.782 1.661 4.663 1.177 8.976 3.024 12.04 5.689l1.313-1.51c-3.393-2.95-8.042-4.901-12.864-6.118-4.834-1.22-9.922-1.722-14.27-1.722zm-25.88 7.354c3.093-2.657 7.422-4.505 12.092-5.684 4.659-1.177 9.58-1.67 13.788-1.67v-2c-4.349 0-9.437.508-14.278 1.73-4.828 1.22-9.487 3.17-12.906 6.107zm-.187.703a1.08 1.08 0 0 1 .287-.803l-1.504-1.318a3.07 3.07 0 0 0-.776 2.286zm.435.787c-.277-.237-.413-.521-.435-.787l-1.993.165c.07.84.489 1.595 1.128 2.142zm1.123.43a1.9 1.9 0 0 1-1.123-.43l-1.3 1.52a3.9 3.9 0 0 0 2.301.906zm1.204-.298c-.33.212-.759.325-1.204.298l-.122 1.996c.846.052 1.7-.158 2.406-.61zm58.174 16.627C65.88 35.729 54.132 29.536 38.84 29.536v2c14.656 0 25.746 5.884 33.157 17.474zm13.41-8.743-14.748 8.413.99 1.737 14.749-8.413zm37.829 21.016L88.084 39.19l-.992 1.737 36.839 21.016zm-12.32 9.046 12.335-7.318-1.02-1.72-12.336 7.317zm.489 11.575V68.391h-2v12.436zm-8.066 5.355 7.577-4.495-1.021-1.72-7.577 4.495zm.489 10.956V85.322h-2v11.816zm3.097-1h-4.097v2h4.097zm1 10.532v-9.532h-2v9.532zm-5.552 1h4.552v-2h-4.552zm-1-6.466v5.466h2v-5.466zm-2.641 1h3.641v-2h-3.641zm1 4.466v-5.466h-2v5.466zm-5.551 1h4.551v-2h-4.551zm-1-10.532v9.532h2v-9.532zm5.096-1h-4.096v2h4.096zm-1-8.116v9.115h2v-9.115zm-10.848 8.19 12.358-7.33-1.02-1.72-12.358 7.33zM64.517 82.82l22.578 13.392 1.02-1.72L65.538 81.1zm-1.225.979c.769-.261 1.508-.582 2.208-.959l-.946-1.761c-.601.323-1.239.6-1.906.826zm-5.283.814c1.804.033 3.6-.243 5.282-.814l-.643-1.894c-1.46.496-3.025.737-4.602.708zm-4.268-.434a22.4 22.4 0 0 0 4.282.434l.01-2a20.4 20.4 0 0 1-3.9-.395zM34.872 70.774c1.178 2.935 3.956 5.88 7.33 8.267 3.395 2.4 7.518 4.323 11.537 5.138l.397-1.96c-3.705-.751-7.574-2.545-10.779-4.811-3.224-2.28-5.654-4.951-6.629-7.38zm-.203-1.345c-.037.457.033.913.2 1.339l1.862-.733a1 1 0 0 1-.069-.447zm.406-1.291c-.23.396-.37.835-.406 1.291l1.993.159c.012-.148.058-.3.143-.447zm.91-1.013c-.369.275-.68.617-.91 1.013l1.73 1.003c.086-.147.21-.29.376-.413zm1.234-.608a3.8 3.8 0 0 0-1.234.608l1.196 1.603c.166-.124.366-.224.592-.289zm1.378-.153a4.1 4.1 0 0 0-1.378.153l.553 1.922c.226-.065.468-.092.71-.078zm1.35.313a4 4 0 0 0-1.35-.313l-.116 1.997c.243.014.475.069.684.157zm1.142.756a3.7 3.7 0 0 0-1.143-.756l-.781 1.841c.209.089.386.208.524.344zm.755 1.129a3.25 3.25 0 0 0-.755-1.129l-1.4 1.429c.138.135.235.284.294.433zm13.53 9.168c-3.067-.623-6.155-2.109-8.648-3.88-2.524-1.793-4.288-3.771-4.882-5.287l-1.862.73c.805 2.052 2.943 4.31 5.586 6.187 2.674 1.9 6.017 3.521 9.408 4.21zm3.983.26a8.4 8.4 0 0 1-3.889-.236l-.587 1.912a10.4 10.4 0 0 0 4.823.293zm3.046-1.227a7.7 7.7 0 0 1-3.046 1.227l.347 1.97a9.7 9.7 0 0 0 3.835-1.551zm-.432-6.414v7.237h2v-7.237zm.014 1.999a13 13 0 0 0 1.653-1.254l-1.334-1.49a11 11 0 0 1-1.4 1.06zm-17.607-3.29c2.357 1.458 5.232 3.242 8.23 4.188 3.029.955 6.313 1.093 9.382-.901l-1.09-1.677c-2.397 1.557-5.005 1.517-7.69.67-2.718-.857-5.38-2.497-7.78-3.981zm-.062-.039.062.039 1.052-1.701-.062-.039zm-9.39-3.481c.741-.426 1.782-.42 3.418.216 1.623.632 3.577 1.784 5.972 3.265l1.052-1.7c-2.368-1.466-4.477-2.72-6.299-3.428-1.808-.704-3.593-.975-5.139-.088zm-2.15 2.367c.448-.933 1.197-1.764 2.186-2.39l-1.068-1.69c-1.28.808-2.296 1.915-2.92 3.214zm-.405 2.915a4.73 4.73 0 0 1 .405-2.915l-1.803-.866a6.73 6.73 0 0 0-.57 4.14zm15.506 14.202c-10.923-4.005-15.02-10.056-15.497-14.138l-1.986.232c.6 5.124 5.49 11.64 16.795 15.784zm1.84 1.47c-.418-.686-1.08-1.193-1.842-1.471l-.684 1.88c.382.139.661.374.82.633zm.367 2.292a3 3 0 0 0-.367-2.293l-1.707 1.043c.154.252.193.523.131.777zm-1.349 1.91c.665-.46 1.159-1.126 1.35-1.91l-1.944-.473c-.063.259-.238.526-.541.736zm-2.285.686a4 4 0 0 0 2.285-.687L47.6 89.047c-.306.21-.707.336-1.137.333zm-1.28-.245c.4.146.822.228 1.249.244l.075-1.998a2 2 0 0 1-.635-.124zM25.2 71.546c.7 6.391 6.452 14.556 19.966 19.587l.698-1.874C32.79 84.392 27.779 76.72 27.188 71.328zm1.077-6.494c-1.04 2.046-1.415 4.308-1.072 6.537l1.977-.304c-.277-1.804.022-3.643.878-5.327zm4.778-5.056c-2.08 1.27-3.739 3.012-4.778 5.056l1.783.906c.857-1.686 2.245-3.162 4.037-4.255zm17.226 3.386c-2.373-1.434-5.163-3.125-8.065-4.04-2.932-.926-6.093-1.096-9.136.639l.991 1.737c2.4-1.369 4.94-1.291 7.543-.47 2.634.832 5.218 2.387 7.633 3.846zm.334.202-.334-.202-1.034 1.712.334.202zm9.168 3.398c-.66.423-1.604.452-3.201-.168-1.585-.616-3.524-1.756-5.967-3.23l-1.034 1.712c2.4 1.449 4.498 2.691 6.277 3.382 1.766.686 3.513.945 5.005-.013zm1.278-1.146a5.7 5.7 0 0 1-1.29 1.154l1.105 1.667a7.7 7.7 0 0 0 1.74-1.562zm-6.39-2.459 6.657 3.949 1.02-1.72-6.656-3.95zm-.03-.02-.039-.025 1.16-1.63a2 2 0 0 0-.117-.075zm-1.434-1.385c.122.165.323.413.558.659.223.234.535.528.875.725l1.005-1.729a2.4 2.4 0 0 1-.434-.377 5 5 0 0 1-.393-.464zm-.545-.605.604.678 1.493-1.331-.604-.678zm.789.334h.005l-.096-1.998h-.005zm-.539-1.87-.005.002.991 1.737.006-.003zm-14.519-3.933c5.226-.858 10.133.966 14.279 5.477l1.472-1.353c-4.535-4.935-10.093-7.08-16.075-6.098zm-8.204 3.577c2.32-1.775 5.153-3.013 8.224-3.58l-.364-1.967c-3.362.621-6.49 1.981-9.075 3.959zm-5.02 6.505c.977-2.485 2.7-4.73 5.02-6.505l-1.215-1.588c-2.586 1.978-4.546 4.51-5.666 7.36zm.07-.343v-.023h-2v.023zm9.868 24.928c-8.911-9.357-12.039-17.574-9.911-24.64l-1.915-.576c-2.447 8.125 1.314 17.078 10.378 26.595zm.855 2.483c.108-.92-.219-1.811-.853-2.481l-1.452 1.375c.258.273.353.587.319.874zm-1.378 2.245c.751-.531 1.271-1.33 1.378-2.245l-1.986-.232c-.034.29-.206.603-.547.844zm-2.286.713a3.8 3.8 0 0 0 2.304-.726l-1.192-1.606c-.282.21-.669.337-1.087.332zm-1.547-.282c.5.198 1.04.293 1.58.282l-.04-2a2.1 2.1 0 0 1-.804-.142zm-1.319-.882c.366.386.82.684 1.32.882l.735-1.86a1.7 1.7 0 0 1-.603-.397zM15.898 64.249c-2.843 9.58 1.296 19.909 11.538 30.598l1.444-1.383c-10.047-10.486-13.604-20.09-11.065-28.646zm7.283-9.71c-3.361 2.592-5.875 5.917-7.262 9.645l1.875.698c1.246-3.35 3.52-6.378 6.608-8.76zm11.852-5.146c-4.4.782-8.492 2.553-11.852 5.145l1.221 1.584c3.09-2.383 6.879-4.03 10.981-4.76zm21.594 8.08c-7.902-8.726-16.878-8.826-21.575-8.083l.313 1.975c4.277-.676 12.476-.614 19.78 7.451zm2.25-2.186-3.487 1.99.991 1.737 3.487-1.99zm-20.063-9.94c9.045 0 16.438 5.551 19.688 11.301l1.74-.984c-3.56-6.299-11.575-12.317-21.428-12.317zm-26.34 28.922c0-3.391.489-10.669 4.03-17.066 1.762-3.183 4.272-6.135 7.85-8.295 3.576-2.16 8.273-3.56 14.46-3.56v-2c-6.5 0-11.564 1.475-15.494 3.848-3.927 2.37-6.666 5.605-8.566 9.039-3.785 6.837-4.28 14.52-4.28 18.034zm-1.138 2.388c.705-.603 1.139-1.457 1.139-2.388h-2c0 .29-.134.607-.439.868zm-2.552.914c.932 0 1.852-.316 2.552-.914l-1.3-1.52c-.309.264-.758.434-1.252.434zm-2.553-.914c.7.598 1.62.914 2.553.914v-2c-.495 0-.944-.17-1.253-.434zm-1.138-2.388c0 .93.433 1.785 1.138 2.388l1.3-1.52c-.305-.26-.438-.578-.438-.868zm33.721-35.525c-12.331 0-20.813 4.577-26.187 11.385-5.345 6.771-7.534 15.644-7.534 24.14h2c0-8.19 2.115-16.58 7.104-22.9 4.96-6.283 12.838-10.625 24.617-10.625zm16.883 5.1c-4.897-3.127-10.772-4.9-16.85-5.1l-.066 2c5.738.188 11.262 1.862 15.84 4.785zm9.018 9.256c-2.116-3.648-5.203-6.82-9.018-9.257l-1.076 1.686c3.565 2.276 6.42 5.221 8.364 8.574zm3.143-2.936-4.504 2.569.992 1.737 4.503-2.57zM38.788 36.14c12.812 0 22.203 5.046 28.719 15.423l1.694-1.064c-6.902-10.99-16.95-16.36-30.414-16.36zM9.543 52.76c3.208-5.611 7.205-9.752 12.028-12.496 4.825-2.745 10.534-4.124 17.215-4.124v-2c-6.961 0-13.025 1.44-18.204 4.386s-9.417 7.368-12.775 13.242zm-.915 1.023c.371-.277.684-.622.914-1.02l-1.734-.998c-.085.148-.21.291-.376.415zm-1.242.61a3.8 3.8 0 0 0 1.242-.61L7.433 52.18a1.8 1.8 0 0 1-.595.29zm-1.388.148c.468.03.939-.02 1.388-.148l-.549-1.924c-.226.065-.47.091-.712.076zm-1.355-.324c.427.185.888.294 1.355.324l.127-1.996a2 2 0 0 1-.684-.162zm-1.87-1.892c.33.859 1.022 1.522 1.87 1.892l.798-1.834c-.42-.183-.687-.477-.801-.775zm.223-2.616c-.47.8-.556 1.748-.223 2.616l1.867-.717c-.11-.288-.088-.6.08-.886zM38.84 29.536c-16.026 0-28.18 6.804-35.85 20.182l1.736.995C12.02 37.99 23.49 31.536 38.84 31.536zm28.302 49.96 19.952 11.836 1.02-1.72-19.951-11.836zm-.527-.802q.044.093.068.188l1.939-.492a3 3 0 0 0-.195-.544zm-.094-7.67v7.246h2v-7.246zm21.576 11.043L68.034 70.164l-1.02 1.72 20.065 11.903zm11.355-7.341-12.375 7.34 1.02 1.72 12.375-7.34zm1.51 8.415v-7.555h-2v7.555zm-12.848 8.19 12.358-7.33-1.02-1.72-12.358 7.33zM65.736 66.247l21.342 12.66 1.02-1.72-21.342-12.66zm22.362 12.66 10.542-6.254-1.02-1.72-10.542 6.254zm10.543-7.973-11.803-7.028-1.023 1.718 11.803 7.029zm-11.513-5.571 2.524-3.384-1.603-1.196-2.524 3.384zm1.21-3.122 13.391 7.973 1.024-1.718-13.391-7.974zm14.413 7.974L116.597 62l-1.021-1.72-13.845 8.213zm13.831-9.942L88.084 44.014l-.992 1.737 28.499 16.258zm-29.49-16.258L65.12 56.55l.991 1.737L88.084 45.75zM64.668 57.74l.001.004v-.002l1.894-.643-.002-.004v.002zm-4.22 1.474-1.854 1.058.991 1.737 1.855-1.057zm-1.868 2.787 1.999 1.186 1.02-1.72L59.6 60.28zm1.517.448v.004l1.985-.245v-.004zm7.089 3.28v-.003l-1.88-.68v.002zM105.025 81.3l3.025-1.795-1.02-1.72-3.026 1.795zm-1.511-8.415v7.555h2v-7.555zm3.516-2.655-3.026 1.795 1.021 1.72 3.025-1.795zm1.51 8.415v-7.555h-2v7.555zM65.12 56.552l-4.671 2.662.99 1.738 4.672-2.663zm-4.54 6.639 5.155 3.057 1.02-1.72L61.6 61.47z"/></g></g><defs><clipPath id="a"><path fill="#fff" d="M0 0h128v128H0z"/></clipPath><filter id="b" width="128.854" height="93.341" x="-.427" y="21.33" color-interpolation-filters="sRGB" filterUnits="userSpaceOnUse"><feFlood flood-opacity="0" result="BackgroundImageFix"/><feColorMatrix in="SourceAlpha" result="hardAlpha" values="0 0 0 0 0 0 0 0 0 0 0 0 0 0 0 0 0 0 127 0"/><feOffset dy="4"/><feGaussianBlur stdDeviation="2"/><feComposite in2="hardAlpha" operator="out"/><feColorMatrix values="0 0 0 0 0 0 0 0 0 0 0 0 0 0 0 0 0 0 0.25 0"/><feBlend in2="BackgroundImageFix" result="effect1_dropShadow_3205_16"/><feBlend in="SourceGraphic" in2="effect1_dropShadow_3205_16" result="shape"/></filter></defs></svg>